<svg xmlns="http://www.w3.org/2000/svg" xmlns:xlink="http://www.w3.org/1999/xlink" width="16" height="16" viewBox="0 0 16 16" fill="none"><path id="星形 1" fill-rule="evenodd" style="fill:#43CF7C" transform="translate(-2.010009765625 -2.010009765625)  rotate(0 9.999999999999998 9.999999999999998)" opacity="0" d="M15.85,5.51L15.85,5.51C16.04,5.12 15.97,4.65 15.66,4.34C15.35,4.03 14.88,3.96 14.49,4.15L14.49,4.15C13.83,4.46 13.07,4.48 12.4,4.2C11.73,3.92 11.21,3.37 10.96,2.69L10.96,2.69C10.82,2.28 10.43,2.01 10,2.01C9.57,2.01 9.18,2.28 9.04,2.69L9.04,2.69C8.79,3.37 8.27,3.92 7.6,4.2C6.93,4.48 6.17,4.46 5.51,4.15L5.51,4.15C5.12,3.96 4.65,4.03 4.34,4.34C4.03,4.65 3.96,5.12 4.15,5.51L4.15,5.51C4.46,6.17 4.48,6.93 4.2,7.6C3.92,8.27 3.37,8.79 2.69,9.04L2.69,9.04C2.28,9.18 2.01,9.57 2.01,10C2.01,10.43 2.28,10.82 2.69,10.96L2.69,10.96C3.37,11.21 3.92,11.73 4.2,12.4C4.48,13.07 4.46,13.83 4.15,14.49L4.15,14.49C3.96,14.88 4.03,15.35 4.34,15.66C4.65,15.97 5.12,16.04 5.51,15.85L5.51,15.85C6.17,15.54 6.93,15.52 7.6,15.8C8.27,16.08 8.79,16.63 9.04,17.31L9.04,17.31C9.18,17.72 9.57,17.99 10,17.99C10.43,17.99 10.82,17.72 10.96,17.31L10.96,17.31C11.21,16.63 11.73,16.08 12.4,15.8C13.07,15.52 13.83,15.54 14.49,15.85L14.49,15.85C14.88,16.04 15.35,15.97 15.66,15.66C15.97,15.35 16.04,14.88 15.85,14.49L15.85,14.49C15.54,13.83 15.52,13.07 15.8,12.4C16.08,11.73 16.63,11.21 17.31,10.96L17.31,10.96C17.72,10.82 17.99,10.43 17.99,10C17.99,9.57 17.72,9.18 17.31,9.04L17.31,9.04C16.63,8.79 16.08,8.27 15.8,7.6C15.52,6.93 15.54,6.17 15.85,5.51Z " /><path  id="星形 1" style="stroke:#A6A6A6; stroke-width:1; stroke-opacity:1; stroke-dasharray:0 0" transform="translate(-2.010009765625 -2.010009765625)  rotate(0 9.999999999999998 9.999999999999998)" d="M15.85,5.51L15.85,5.51C16.04,5.12 15.97,4.65 15.66,4.34C15.35,4.03 14.88,3.96 14.49,4.15L14.49,4.15C13.83,4.46 13.07,4.48 12.4,4.2C11.73,3.92 11.21,3.37 10.96,2.69L10.96,2.69C10.82,2.28 10.43,2.01 10,2.01C9.57,2.01 9.18,2.28 9.04,2.69L9.04,2.69C8.79,3.37 8.27,3.92 7.6,4.2C6.93,4.48 6.17,4.46 5.51,4.15L5.51,4.15C5.12,3.96 4.65,4.03 4.34,4.34C4.03,4.65 3.96,5.12 4.15,5.51L4.15,5.51C4.46,6.17 4.48,6.93 4.2,7.6C3.92,8.27 3.37,8.79 2.69,9.04L2.69,9.04C2.28,9.18 2.01,9.57 2.01,10C2.01,10.43 2.28,10.82 2.69,10.96L2.69,10.96C3.37,11.21 3.92,11.73 4.2,12.4C4.48,13.07 4.46,13.83 4.15,14.49L4.15,14.49C3.96,14.88 4.03,15.35 4.34,15.66C4.65,15.97 5.12,16.04 5.51,15.85L5.51,15.85C6.17,15.54 6.93,15.52 7.6,15.8C8.27,16.08 8.79,16.63 9.04,17.31L9.04,17.31C9.18,17.72 9.57,17.99 10,17.99C10.43,17.99 10.82,17.72 10.96,17.31L10.96,17.31C11.21,16.63 11.73,16.08 12.4,15.8C13.07,15.52 13.83,15.54 14.49,15.85L14.49,15.85C14.88,16.04 15.35,15.97 15.66,15.66C15.97,15.35 16.04,14.88 15.85,14.49L15.85,14.49C15.54,13.83 15.52,13.07 15.8,12.4C16.08,11.73 16.63,11.21 17.31,10.96L17.31,10.96C17.72,10.82 17.99,10.43 17.99,10C17.99,9.57 17.72,9.18 17.31,9.04L17.31,9.04C16.63,8.79 16.08,8.27 15.8,7.6C15.52,6.93 15.54,6.17 15.85,5.51Z " /></svg>